<?xml version="1.0" encoding="UTF-8"?>
<svg id="Ikony" xmlns="http://www.w3.org/2000/svg" viewBox="0 0 24 24">
  <defs>
    <style>
      .cls-1 {
        fill: #1d1d1b;
      }
    </style>
  </defs>
  <path class="cls-1" d="m20.93,11.2l-2.13-5.01c.1-.17.17-.37.17-.59,0-.62-.51-1.13-1.13-1.13h-4.72v-.34c0-.62-.5-1.13-1.12-1.13s-1.12.51-1.12,1.13v.34h-4.72c-.62,0-1.13.51-1.13,1.13,0,.22.07.42.17.59l-2.13,5.01c-.05.1-.07.21-.07.33,0,1.19.64,2.29,1.66,2.89,1.03.59,2.29.59,3.31,0,1.03-.6,1.66-1.7,1.66-2.89,0,0-.02-.23-.07-.33l-1.9-4.47h3.22v10.38c0,.07.01.14.02.21l-5.16,2.16c-.22.09-.39.29-.46.52-.06.24-.01.5.14.69.15.2.38.31.62.31h11.92c.24,0,.47-.11.62-.31.15-.19.2-.45.14-.69-.07-.23-.24-.43-.46-.52l-5.16-2.16c.01-.07.02-.14.02-.21V6.73h3.22l-1.9,4.47c-.05.1-.07.33-.07.33,0,1.19.63,2.29,1.66,2.89,1.02.59,2.28.59,3.31,0,1.02-.6,1.65-1.7,1.66-2.89,0-.12-.02-.23-.07-.33Zm-13.07,0c.06.16-.05.32-.21.32h-2.67c-.16,0-.27-.16-.21-.32l1.34-3.12c.08-.19.34-.19.42,0l1.33,3.12Zm11.16.32h-2.67c-.16,0-.27-.16-.21-.32l1.33-3.12c.08-.19.34-.19.42,0l1.34,3.12c.06.16-.05.32-.21.32Z"/>
</svg>