<?xml version="1.0" encoding="UTF-8"?>
<svg id="Ikony" xmlns="http://www.w3.org/2000/svg" viewBox="0 0 24 24">
  <defs>
    <style>
      .cls-1 {
        fill: #010101;
        fill-rule: evenodd;
      }
    </style>
  </defs>
  <path class="cls-1" d="m13.06,16.19l3.94-2.19v2.71c0,.31-.17.6-.45.76l-4.33,2.41c-.26.15-.58.15-.84,0l-4.33-2.41c-.27-.15-.45-.44-.45-.76v-2.71l3.94,2.19c.19.11.4.19.62.25.44.11.91.11,1.35-.02.19-.05.38-.13.56-.23Zm7.47-7.68l-8.1-4.5c-.27-.15-.6-.15-.87,0L3.46,8.51c-.29.16-.46.46-.46.79s.18.63.46.79l8.1,4.5c.27.15.6.15.87,0l3.91-2.28,2.21,1.2v5.59c0,.5.4.9.9.9s.9-.4.9-.9v-6.13c0-.33-.18-.63-.47-.79l-1.68-.92,2.33-1.18c.29-.16.46-.46.46-.79s-.18-.63-.46-.79Z"/>
</svg>