<?xml version="1.0" encoding="UTF-8"?>
<svg id="Ikony" xmlns="http://www.w3.org/2000/svg" viewBox="0 0 24 24">
  <defs>
    <style>
      .cls-1 {
        fill: #010101;
        stroke-width: 0px;
      }
    </style>
  </defs>
  <path class="cls-1" d="m20.86,5.58h-7.42c-.21,0-.39-.17-.39-.39v-2.79c0-.28-.28-.47-.54-.36L2.99,6.01c-.14.06-.24.2-.24.36v9.63c0,.14.08.28.21.35l10.54,5.58c.12.06.27.06.39-.01l7.18-4.51c.12-.07.19-.2.19-.33V5.97c0-.21-.17-.39-.39-.39ZM4.13,12.34v-5.04c0-.16.09-.3.24-.36l6.75-2.82c.26-.11.54.08.54.36v2.1c0,.21.17.39.39.39h7.42c.21,0,.39.17.39.39v4.98c0,.21-.17.39-.39.39H4.52c-.21,0-.39-.17-.39-.39h0Z"/>
</svg>