<?xml version="1.0" encoding="UTF-8"?>
<svg id="Ikony" xmlns="http://www.w3.org/2000/svg" viewBox="0 0 24 24">
  <defs>
    <style>
      .cls-1 {
        stroke-width: 0px;
      }
    </style>
  </defs>
  <path class="cls-1" d="M18.75,3H5.25c-1.24,0-2.25,1.01-2.25,2.25v13.5c0,1.24,1.01,2.25,2.25,2.25h13.5c1.24,0,2.25-1.01,2.25-2.25V5.25c0-1.24-1.01-2.25-2.25-2.25ZM6.06,13.15c0,.09.08.17.17.17h1.49c.39-.01.71.31.71.7s-.32.71-.71.71h-1.51c-.87,0-1.58-.71-1.58-1.58v-2.22c0-.87.71-1.58,1.58-1.58h1.51c.39,0,.71.32.71.71s-.32.71-.71.71h-1.5c-.09,0-.17.08-.17.17v2.21ZM14.69,17.79c0,.87-.71,1.58-1.58,1.58h-2.22c-.87,0-1.58-.71-1.58-1.58v-1.51c0-.39.32-.71.71-.71s.71.32.71.71v1.5c0,.09.08.17.17.17h2.21c.09-.01.17-.09.17-.18v-1.49c-.01-.39.31-.71.7-.71s.71.32.71.71v1.51ZM11.61,10.4s.03.02.04.03c.02.01.04.02.09.03l1.12.38s.08.03.12.05c.09.04.17.09.24.13.09.06.17.13.23.2h0c.07.08.13.17.17.27.05.12.07.24.07.35,0,.1-.01.22-.05.32-.03.1-.08.2-.16.29-.07.09-.14.16-.22.22-.16.11-.32.18-.45.23-.05.02-.08.03-.11.04l-.26.08s-.05.02-.12.04l-.66.19s-.02.01-.02.02c.04.07.4.31.71.49.15.11.27.19.31.22l.04.03s.09.08.14.13c.07.08.13.17.17.27.07.19.06.38-.02.58-.05.1-.13.2-.22.28-.05.04-.29.17-.54.18-.02,0-.05,0-.08,0-.13,0-.28-.03-.44-.08-.16-.04-.26-.16-.25-.3.03-.22.32-.24.45-.25.12-.01.29-.06.38-.1.02-.02,0-.04,0-.05-.02-.02-.06-.05-.1-.08-.08-.06-.67-.44-.88-.58-.15-.1-.34-.24-.4-.32-.16-.13-.17-.37-.17-.43-.02-.22.06-.42.23-.6.07-.08.18-.14.28-.19.05-.03.19-.08.23-.08l.96-.32s.04-.01.05-.02c.12-.05.17-.08.19-.1.02-.02.03-.03.04-.04,0,0,0-.02,0-.03,0-.01-.02-.03-.05-.04-.03-.02-.05-.03-.07-.03-.02,0-.03-.01-.05-.02l-1.14-.33c-.1-.03-.18-.06-.25-.09-.08-.04-.17-.09-.26-.16-.17-.14-.29-.31-.37-.5-.04-.09-.07-.2-.08-.3,0-.01,0-.05,0-.08,0-.03,0-.05,0-.07,0-.05,0-.1.01-.15l.03-.14s.02-.07.03-.1v-.03s.02-.04.02-.04c.02-.05.05-.1.07-.14l.08-.12c.13-.17.3-.3.49-.39.19-.09.41-.13.62-.12.05,0,.3.01.51.06.28.06.56.16.57.16.19.04.34.08.48.22.1.1.22.25.27.35.1.19.07.32.03.4-.03.06-.11.17-.31.19h-.07c-.16.04-.39.07-.67-.06-.02-.01-.12-.08-.18-.12-.05-.04-.1-.06-.17-.08-.08-.02-.21-.02-.36-.02-.17,0-.26.03-.26.04-.05.02-.09.06-.09.1,0,.06.01.12.05.15ZM14.77,7.72c0,.39-.32.71-.71.71s-.71-.32-.71-.71v-1.51c0-.09-.08-.17-.17-.17h-2.21c-.09.01-.17.09-.17.18v1.49c.01.39-.31.71-.7.71s-.71-.32-.71-.71v-1.51c0-.87.71-1.58,1.58-1.58h2.22c.87,0,1.58.71,1.58,1.58v1.51ZM19.37,13.11c0,.87-.71,1.58-1.58,1.58h-1.51c-.39,0-.71-.32-.71-.71s.32-.71.71-.71h1.5c.09,0,.17-.08.17-.17v-2.21c-.01-.09-.09-.17-.18-.17h-1.49c-.39.01-.71-.31-.71-.7s.32-.71.71-.71h1.51c.87,0,1.58.71,1.58,1.58v2.22Z"/>
</svg>