<?xml version="1.0" encoding="UTF-8"?>
<svg id="Ikony" xmlns="http://www.w3.org/2000/svg" viewBox="0 0 24 24">
  <defs>
    <style>
      .cls-1 {
        stroke-width: 0px;
      }
    </style>
  </defs>
  <path class="cls-1" d="M14.6,8.8h0s0,0,0,0c-.65,0-1.26.25-1.72.71l-.25.26c-.16.16-.38.26-.6.26-.22-.04-.45-.09-.61-.25l-.26-.26c-.46-.46-1.07-.71-1.72-.71,0,0-.02,0-.03,0-.62,0-1.21.25-1.63.69-.87.9-.85,2.36.03,3.25l4.21,4.2,4.21-4.21c.89-.89.9-2.35.03-3.25-.43-.44-1.01-.72-1.64-.68Z"/>
  <path class="cls-1" d="M12,2C6.48,2,2,6.5,2,12s4.48,10,10,10,10-4.48,10-10S17.52,2,12,2ZM17.41,13.94l-4.65,4.65c-.2.2-.47.32-.76.32s-.56-.11-.76-.32l-4.65-4.64c-1.54-1.54-1.56-4.07-.05-5.63.75-.78,1.82-1.24,2.88-1.21h.01c.94,0,1.84.32,2.57.9.74-.59,1.64-.91,2.59-.91.01,0,.02,0,.03,0,1.07,0,2.1.44,2.85,1.2,1.51,1.57,1.49,4.1-.05,5.64Z"/>
</svg>