<?xml version="1.0" encoding="UTF-8"?>
<svg id="Ikony" xmlns="http://www.w3.org/2000/svg" viewBox="0 0 24 24">
  <defs>
    <style>
      .cls-1 {
        stroke-width: 0px;
      }
    </style>
  </defs>
  <path class="cls-1" d="M17.32,12.65c0-.72-.22-1.43-.65-2.07-.43-.63-1.39-1.39-2.96-2.33-1.45-.86-2.37-1.48-2.76-1.84-.31-.29-.46-.58-.46-.88,0-.33.11-.57.33-.77.24-.21.6-.32,1.07-.32,1.09,0,1.38.52,1.53.96.19.6.73,1,1.36,1,.49,0,.93-.24,1.2-.64.25-.39.3-.87.12-1.29-.24-.56-.61-1.05-1.07-1.44-.81-.69-1.9-1.03-3.25-1.03-1.27,0-2.29.37-3.04,1.1-.76.73-1.14,1.57-1.14,2.52,0,.83.33,1.62.99,2.33-1.26.74-1.9,1.73-1.9,2.94,0,.77.2,1.49.6,2.14.4.66,1.37,1.45,2.96,2.41,1.48.9,2.47,1.54,2.95,1.93.38.31.56.61.56.91,0,.33-.13.61-.39.86-.26.25-.67.38-1.2.38-1.32,0-1.67-.62-1.82-1.09-.18-.59-.72-.98-1.35-.98-.48,0-.93.24-1.19.63-.26.4-.32.89-.13,1.32.27.63.68,1.16,1.2,1.57.86.67,2.01,1.01,3.29,1.01s2.35-.35,3.18-1.04c.85-.71,1.28-1.62,1.28-2.7s-.4-1.97-1.17-2.68c1.24-.77,1.86-1.75,1.86-2.93ZM13.7,14.25c-.43-.27-1.06-.66-1.92-1.18-1.22-.73-1.72-1.17-1.92-1.4-.24-.3-.37-.62-.37-.99,0-.58.24-1,.78-1.33.49.37,1.15.81,1.96,1.29h0c.91.54,1.55,1.01,1.87,1.38.29.33.43.64.43.97,0,.51-.27.91-.82,1.25Z"/>
</svg>