<?xml version="1.0" encoding="UTF-8"?>
<svg id="Ikony" xmlns="http://www.w3.org/2000/svg" viewBox="0 0 24 24">
  <defs>
    <style>
      .cls-1 {
        fill: #010101;
      }
    </style>
  </defs>
  <path class="cls-1" d="m17.23,4.08l-3.47,3.13c-.07.06-.11.15-.11.24v8.19c0,.28.33.43.54.24l3.47-3.13c.07-.06.11-.15.11-.24V4.32c0-.28-.33-.43-.54-.24Zm-9.75,1.99c-1.51,0-3.17.31-4.39,1.14-.09.06-.14.16-.14.27v11.93c0,.16.15.42.41.41.06,0,.19-.08.22-.09,1.07-.49,2.68-.9,3.9-.9,1.49,0,3.21.3,4.36,1.11.1.07.24.08.34.01,1.17-.68,3.02-1.13,4.35-1.13s2.74.23,3.88.88c.09.04.13.05.24.04.16-.02.4-.18.4-.42V7.48c0-.11-.05-.21-.14-.27-.33-.22-.67-.43-1.06-.59-.21-.08-.44.07-.44.3v10.23c0,.21-.2.37-.41.31-.79-.22-1.63-.28-2.47-.28-1.22,0-2.89.38-4.06.97-.21.11-.47-.05-.47-.29V7.47c0-.1-.05-.2-.13-.26-1.16-.83-2.89-1.14-4.4-1.14h0Z"/>
</svg>