<svg width="24" height="24" viewBox="0 0 24 24" fill="none" xmlns="http://www.w3.org/2000/svg">
<path fill-rule="evenodd" clip-rule="evenodd" d="M6 4.6868C6.37125 4.26061 6.91611 4 7.50861 4H16.4914C17.0839 4 17.6287 4.26061 18 4.68679C18.1009 4.80257 18.1889 4.93055 18.2616 5.06886C18.3246 5.18874 18.3761 5.31639 18.4144 5.45053L19.2716 8.45053C19.4718 9.15135 20.0082 10.1255 20.4933 10.6695C20.8085 11.023 21 11.4891 21 12V15C21 16.1045 20.1046 17 19 17H5C3.89543 17 3 16.1045 3 15V12C3 11.4891 3.19154 11.023 3.50671 10.6695C3.99177 10.1255 4.52818 9.15135 4.72841 8.45053L5.58556 5.45053C5.6681 5.16162 5.81173 4.90293 6 4.6868ZM7.50861 5.5H16.4914C16.7146 5.5 16.9108 5.64799 16.9722 5.86264L17.8293 8.86264C17.9206 9.18205 17.6807 9.5 17.3485 9.5H6.65146C6.31927 9.5 6.07944 9.18205 6.1707 8.86264L7.02784 5.86264C7.08917 5.64799 7.28537 5.5 7.50861 5.5ZM5.5 12.25C5.5 11.5596 6.05964 11 6.75 11C7.44036 11 8 11.5596 8 12.25C8 12.9404 7.44036 13.5 6.75 13.5C6.05964 13.5 5.5 12.9404 5.5 12.25ZM17.25 11C17.9404 11 18.5 11.5596 18.5 12.25C18.5 12.9404 17.9404 13.5 17.25 13.5C16.5596 13.5 16 12.9404 16 12.25C16 11.5596 16.5596 11 17.25 11Z" fill="black"/>
<path d="M20.2808 9H21C21.5523 9 22 8.55228 22 8C22 7.44772 21.5523 7 21 7H19.7808L20.2808 9Z" fill="black"/>
<path d="M3 9H3.71924L4.21924 7H3C2.44772 7 2 7.44772 2 8C2 8.55228 2.44772 9 3 9Z" fill="black"/>
<path d="M7 18V19C7 19.5523 6.55228 20 6 20H5C4.44772 20 4 19.5523 4 19V18H7Z" fill="black"/>
<path d="M20 19V18H17V19C17 19.5523 17.4477 20 18 20H19C19.5523 20 20 19.5523 20 19Z" fill="black"/>
</svg>