<?xml version="1.0" encoding="UTF-8"?>
<svg id="Ikony" xmlns="http://www.w3.org/2000/svg" viewBox="0 0 24 24">
  <defs>
    <style>
      .cls-1 {
        fill: #1d1d1b;
      }
    </style>
  </defs>
  <path class="cls-1" d="m12,10.95c1.28,0,2.32,1.05,2.32,2.34s-1.04,2.34-2.32,2.34-2.32-1.05-2.32-2.34,1.04-2.34,2.32-2.34Zm0,5.16c-2.21,0-4.04,1.66-4.33,3.82-.04.31.21.59.52.59h7.62c.31,0,.56-.28.52-.59-.29-2.15-2.12-3.82-4.33-3.82Zm-5.45,3.67c.22-1.64,1.15-3.04,2.46-3.89.22-.15.28-.45.13-.67-.37-.55-.58-1.21-.58-1.92,0-.49.1-.95.28-1.38h-2.29c-1.96,0-3.56,1.59-3.56,3.56v4.55c0,.28.22.5.5.5h3.13c-.08-.24-.11-.49-.08-.74Zm10.89-7.86h-2.28c.18.42.28.89.28,1.38,0,.71-.22,1.37-.58,1.92-.15.22-.09.53.13.67,1.3.85,2.24,2.25,2.46,3.89.03.25,0,.5-.08.74h3.13c.28,0,.5-.22.5-.5v-4.55c0-1.96-1.59-3.56-3.56-3.56Zm-10.16-1.56c1.88,0,3.41-1.54,3.41-3.44s-1.53-3.44-3.41-3.44-3.41,1.54-3.41,3.44,1.53,3.44,3.41,3.44Zm9.43,0c1.88,0,3.41-1.54,3.41-3.44s-1.53-3.44-3.41-3.44-3.41,1.54-3.41,3.44,1.53,3.44,3.41,3.44Z"/>
</svg>