<?xml version="1.0" encoding="UTF-8"?>
<svg id="Podpisy_do_ikon" data-name="Podpisy do ikon" xmlns="http://www.w3.org/2000/svg" viewBox="0 0 24 24">
  <defs>
    <style>
      .cls-1 {
        fill: #010101;
      }
    </style>
  </defs>
  <path class="cls-1" d="m17.1,3H6.9c-1.69,0-3.06,1.37-3.06,3.04v9.88c0,1.54,1.15,2.82,2.64,3.02,0,0,0,0,0,0l-.57.69c-.3.36-.24.88.11,1.18.36.29.89.25,1.18-.11l1.43-1.73h6.72l1.43,1.73c.3.36.83.41,1.18.11.36-.29.41-.82.11-1.18l-.57-.69s0,0,0,0c1.49-.2,2.64-1.48,2.64-3.02V6.04c0-1.68-1.37-3.04-3.06-3.04h0Zm-8.96,13.54c-.59,0-1.06-.47-1.06-1.04s.47-1.05,1.06-1.05,1.05.47,1.05,1.05c0,.57-.47,1.04-1.05,1.04Zm7.73,0c-.58,0-1.06-.47-1.06-1.04s.48-1.05,1.06-1.05,1.05.47,1.05,1.05c0,.57-.46,1.04-1.05,1.04Zm1.77-5.21c0,.54-.44.98-1,.98H7.36c-.55,0-1-.44-1-.98v-4.83c0-.55.44-.99,1-.99h9.28c.55,0,1,.44,1,.99v4.83Z"/>
</svg>