<svg width="24" height="24" viewBox="0 0 24 24" fill="none" xmlns="http://www.w3.org/2000/svg">
<path fill-rule="evenodd" clip-rule="evenodd" d="M22 12C22 17.5228 17.5228 22 12 22C6.47715 22 2 17.5228 2 12C2 6.47715 6.47715 2 12 2C17.5228 2 22 6.47715 22 12ZM10.75 19.3963V16.6672C10.75 15.3744 9.63683 14.3272 8.49902 13.7134C7.95997 13.4226 7.47265 13.25 6.86016 13.25H4.6037C5.1306 16.3906 7.60937 18.8694 10.75 19.3963ZM4.6037 10.75C5.1988 7.20286 8.28375 4.5 12 4.5C15.7162 4.5 18.8012 7.20286 19.3963 10.75H18.1374C17.2478 10.75 16.4197 10.2932 15.6366 9.86118C15.6034 9.84286 15.5703 9.82459 15.5372 9.8064C14.6323 9.30819 13.3816 9 12 9C10.6184 9 9.36772 9.30819 8.46276 9.8064C8.42971 9.82459 8.39658 9.84287 8.36337 9.86119C7.58028 10.2932 6.75221 10.75 5.86262 10.75H4.6037ZM19.3963 13.25H17.1398C16.5274 13.25 16.04 13.4226 15.501 13.7134C14.3632 14.3272 13.25 15.3744 13.25 16.6672V19.3963C16.3906 18.8694 18.8694 16.3906 19.3963 13.25Z" fill="black"/>
</svg>