<?xml version="1.0" encoding="UTF-8"?>
<svg id="Ikony" xmlns="http://www.w3.org/2000/svg" viewBox="0 0 24 24">
  <defs>
    <style>
      .cls-1 {
        fill: #010202;
        stroke-width: 0px;
      }
    </style>
  </defs>
  <path class="cls-1" d="m15.25,10.91c0-.47-.25-.9-.66-1.13l-1.96-1.13c-.41-.23-.9-.23-1.3,0l-1.96,1.13c-.41.23-.66.66-.66,1.13v2.26c0,.47.25.9.66,1.13l1.96,1.13c.41.23.9.23,1.3,0l1.96-1.13c.41-.23.66-.66.66-1.13v-2.26Z"/>
  <path class="cls-1" d="m19.08,4.95c-3.91-3.9-10.25-3.9-14.16,0-3.9,3.9-3.9,10.25,0,14.15,3.9,3.9,10.25,3.9,14.15,0,3.9-3.9,3.9-10.25,0-14.15h0Zm-4.43,13.93l-1.96-1.13c-.41-.23-.9-.23-1.3,0l-1.96,1.13c-.38.22-.61.61-.64,1.04-1.03-.42-1.99-1.04-2.82-1.87s-1.43-1.76-1.84-2.76c.42-.04.8-.27,1.01-.64l1.13-1.96c.23-.41.23-.9,0-1.3l-1.13-1.96c-.22-.38-.61-.61-1.04-.64.42-1.02,1.04-1.98,1.86-2.8.82-.82,1.79-1.45,2.81-1.87.02.44.25.85.64,1.08l1.96,1.13c.41.23.9.23,1.3,0l1.96-1.13c.38-.22.61-.61.64-1.04.99.41,1.93,1.02,2.74,1.83.81.81,1.44,1.78,1.86,2.8-.44.02-.84.26-1.07.64l-1.13,1.96c-.23.41-.23.9,0,1.3l1.13,1.96c.22.38.61.61,1.05.64-.41,1-1.03,1.94-1.84,2.76s-1.75,1.42-2.75,1.84c-.04-.42-.27-.79-.64-1h.01Z"/>
</svg>