<?xml version="1.0" encoding="UTF-8"?>
<svg id="Ikony" xmlns="http://www.w3.org/2000/svg" viewBox="0 0 24 24">
  <defs>
    <style>
      .cls-1 {
        fill: #1e1e1c;
        stroke-width: 0px;
      }
    </style>
  </defs>
  <path class="cls-1" d="m7.85,6.58c-.65,0-1.18.53-1.18,1.18s.53,1.18,1.18,1.18,1.18-.53,1.18-1.18-.53-1.18-1.18-1.18Z"/>
  <path class="cls-1" d="m19.65,3H4.66c-.87,0-1.57.7-1.57,1.57v14.99c0,.87.7,1.57,1.57,1.57h14.99c.87,0,1.57-.7,1.57-1.57V4.57c0-.87-.7-1.57-1.57-1.57Zm-6.05,3.62c-.29-.29-.29-.76,0-1.05.29-.29.76-.29,1.05,0l1.13,1.13,1.13-1.13c.29-.29.76-.29,1.05,0s.29.76,0,1.05l-1.13,1.13,1.13,1.13c.29.29.29.76,0,1.05-.15.15-.33.22-.53.22s-.38-.07-.53-.22l-1.13-1.13-1.13,1.13c-.15.15-.33.22-.53.22s-.38-.07-.53-.22c-.29-.29-.29-.76,0-1.05l1.13-1.13s-1.13-1.13-1.13-1.13Zm-3.55,10.45c.29.29.29.76,0,1.05-.15.15-.33.22-.53.22s-.38-.07-.53-.22l-1.13-1.13-1.13,1.13c-.15.15-.33.22-.53.22s-.38-.07-.53-.22c-.29-.29-.29-.76,0-1.05l1.13-1.13-1.13-1.13c-.29-.29-.29-.76,0-1.05s.76-.29,1.05,0l1.13,1.13,1.13-1.13c.29-.29.76-.29,1.05,0,.29.29.29.76,0,1.05l-1.13,1.13s1.13,1.13,1.13,1.13Zm-2.19-6.77c-1.41,0-2.55-1.14-2.55-2.55s1.14-2.55,2.55-2.55,2.55,1.14,2.55,2.55-1.14,2.55-2.55,2.55Zm11.29,8.75c-.29.29-.76.29-1.05,0l-3.91-3.91v.5c0,.41-.33.75-.75.75s-.75-.33-.75-.75v-2.3c0-.2.08-.39.22-.53.14-.14.33-.22.53-.22h2.3c.2,0,.39.08.53.22s.22.32.22.53c0,.41-.33.75-.75.75h-.5l3.91,3.91c.29.29.29.76,0,1.05Z"/>
</svg>