<?xml version="1.0" encoding="UTF-8"?>
<svg id="Ikony" xmlns="http://www.w3.org/2000/svg" viewBox="0 0 24 24">
  <defs>
    <style>
      .cls-1 {
        fill: #1d1d1b;
      }
    </style>
  </defs>
  <path class="cls-1" d="m15.99,16.2c-1.19.65-2.55,1.02-4,1.02s-2.79-.37-3.97-1.01c-.33-.18-.73.06-.73.44v4.99c0,.28.31.45.55.3l3.98-2.42c.11-.07.26-.07.37,0l3.98,2.42c.24.15.55-.02.55-.3v-5c0-.38-.4-.62-.73-.44Z"/>
  <path class="cls-1" d="m12,2c-.72,0-1.41.11-2.05.32-2.79.86-4.82,3.47-4.82,6.55,0,3.79,3.08,6.87,6.87,6.87s6.88-3.08,6.88-6.87-3.08-6.87-6.88-6.87Zm3.37,5.51l-3.79,3.78c-.14.14-.33.22-.53.22s-.39-.08-.53-.22l-1.88-1.87c-.29-.3-.29-.77,0-1.07.29-.29.77-.29,1.06,0l1.35,1.35,3.26-3.25c.29-.3.77-.3,1.06,0,.29.29.29.76,0,1.06Z"/>
</svg>