<?xml version="1.0" encoding="UTF-8"?>
<svg id="Ikony" xmlns="http://www.w3.org/2000/svg" viewBox="0 0 24 24">
  <defs>
    <style>
      .cls-1 {
        fill: #010101;
        stroke-width: 0px;
      }
    </style>
  </defs>
  <path class="cls-1" d="M14.26,16.52c-.32-.13-.66-.13-.98,0-.31.13-.56.38-.69.69-.54,1.3-1.8,2.18-3.21,2.25-.97.05-1.91-.29-2.64-.96-.72-.66-1.15-1.56-1.19-2.53-.05-1.2.48-2.35,1.44-3.08.27-.21.44-.51.49-.85.05-.34-.04-.67-.25-.94-.21-.27-.51-.44-.85-.49-.34-.05-.67.04-.94.25-1.61,1.23-2.53,3.18-2.44,5.22.07,1.66.79,3.19,2.01,4.3,1.15,1.05,2.63,1.63,4.18,1.63.1,0,.2,0,.29,0,2.38-.11,4.52-1.61,5.45-3.81.14-.31.14-.65.02-.97-.13-.32-.37-.57-.69-.7Z"/>
  <path class="cls-1" d="M20.18,17.07l-2.98-3.25c-.58-.63-1.41-1-2.27-1h-3.56v-2.74l2.45,1c.72.28,1.4-.07,1.66-.7.26-.65-.05-1.4-.7-1.66l-4.19-1.7-.1-.03c-.06-.03-.11-.03-.11-.03-.06-.02-.11-.02-.11-.02l-.18-.02s-.1,0-.1,0h-.12s-.01,0-.01,0h-.07s-.03.04-.03.04c-.11.03-.23.08-.37.17l-.12.08v.02c-.08.07-.14.14-.2.22l-.05.08s-.06.07-.07.13l-.05.12c-.04.07-.04.13-.04.14-.02.05-.02.09-.02.09,0,0,0,0,0,0l-.02,6.08c0,.7.57,1.28,1.28,1.28h4.83c.14,0,.29.06.38.17l2.98,3.25c.25.27.58.41.94.41.32,0,.62-.12.86-.34.51-.48.54-1.28.07-1.8Z"/>
  <circle class="cls-1" cx="10.18" cy="4.07" r="2.11"/>
</svg>