<?xml version="1.0" encoding="UTF-8"?>
<svg id="Ikony" xmlns="http://www.w3.org/2000/svg" viewBox="0 0 24 24">
  <defs>
    <style>
      .cls-1 {
        fill: #010101;
      }
    </style>
  </defs>
  <path class="cls-1" d="m20.21,6.5l-7.68-3.41c-.33-.15-.71-.15-1.05,0l-7.69,3.41c-.48.21-.78.69-.78,1.21v.1c0,.73.58,1.32,1.31,1.32h15.37c.72,0,1.31-.59,1.31-1.32v-.1c0-.53-.31-1-.78-1.21Z"/>
  <path class="cls-1" d="m8.4,13.86v-2.76c0-.61-.49-1.1-1.1-1.1s-1.1.49-1.1,1.1v2.76c0,.61.49,1.1,1.1,1.1s1.1-.49,1.1-1.1Z"/>
  <path class="cls-1" d="m17.78,13.86v-2.76c0-.61-.49-1.1-1.1-1.1s-1.1.49-1.1,1.1v2.76c0,.61.49,1.1,1.1,1.1s1.1-.49,1.1-1.1Z"/>
  <path class="cls-1" d="m13.09,13.86v-2.76c0-.61-.49-1.1-1.1-1.1s-1.1.49-1.1,1.1v2.76c0,.61.49,1.1,1.1,1.1s1.1-.49,1.1-1.1Z"/>
  <path class="cls-1" d="m4.7,17c0,.55.45,1,1,1h12.6c.55,0,1-.45,1-1s-.45-1-1-1H5.7c-.55,0-1,.45-1,1Z"/>
  <path class="cls-1" d="m19.93,19H4.06c-.58,0-1.06.45-1.06,1s.48,1,1.06,1h15.87c.58,0,1.06-.45,1.06-1s-.48-1-1.06-1Z"/>
</svg>