<?xml version="1.0" encoding="UTF-8"?>
<svg id="Ikony" xmlns="http://www.w3.org/2000/svg" viewBox="0 0 20.11 19.9">
  <defs>
    <style>
      .cls-1 {
        stroke-width: 0px;
      }
    </style>
  </defs>
  <path class="cls-1" d="M19.44,10.9l-1.8-1,1.8-1c.6-.4.8-1.1.5-1.8l-2.5-4.3c-.4-.6-1.2-.9-1.8-.5l-1.8,1V1.3c0-.7-.6-1.3-1.3-1.3h-5c-.7,0-1.3.6-1.3,1.3v2.1l-1.8-1c-.6-.5-1.3-.3-1.7.4L.24,7.1c-.4.6-.2,1.4.4,1.8l1.8,1-1.8,1c-.6.4-.8,1.1-.5,1.8l2.5,4.3c.3.5.9.6,1.4.4.5-.3.6-.9.4-1.4l-2.1-3.7,2.7-1.5c.3-.2.5-.5.5-.9s-.2-.7-.5-.9l-2.8-1.5,1.8-3.1,2.7,1.5c.3.2.7.2,1,0s.5-.5.5-.9V2h3.6v3.1c0,.4.2.7.5.9s.7.2,1,0l2.7-1.6,1.8,3.1-2.7,1.6c-.3.2-.5.5-.5.9s.2.7.5.9l2.7,1.5-2.1,3.7c-.3.5-.1,1.1.4,1.4.2.1.3.1.5.1.3,0,.7-.2.9-.5l2.5-4.3c.2-.7,0-1.5-.6-1.9Z"/>
  <path class="cls-1" d="M14.64,13h-2.7v-2.7c0-.3-.2-.5-.5-.5h-2.7c-.3,0-.5.2-.5.5v2.7h-2.8c-.3,0-.5.2-.5.5v2.7c0,.3.2.5.5.5h2.7v2.7c0,.3.2.5.5.5h2.7c.3,0,.5-.2.5-.5v-2.7h2.7c.3,0,.5-.2.5-.5v-2.7c.1-.3-.2-.5-.4-.5Z"/>
</svg>