<?xml version="1.0" encoding="UTF-8"?>
<svg id="Ikony" xmlns="http://www.w3.org/2000/svg" viewBox="0 0 24 24">
  <defs>
    <style>
      .cls-1 {
        fill: #010101;
        stroke-width: 0px;
      }
    </style>
  </defs>
  <path class="cls-1" d="m2.07,9.48c3.66-1.45,6.78-2.2,9.93-2.25,3.14.05,6.26.8,9.93,2.25.03-.11.05-.21.08-.33.3-1.24-.74-3.02-2.16-3.5-3.07-1.03-5.46-1.55-7.85-1.6-2.4.04-4.78.57-7.85,1.6-1.43.48-2.46,2.26-2.16,3.5.03.12.05.22.08.33Z"/>
  <path class="cls-1" d="m12,9.61c-2.92.06-5.84.81-9.36,2.26.52,2.2.94,3.98,1.6,6.81.23.96,1.14,1.43,2.21,1.22,2.2-.42,3.87-.62,5.56-.57,1.68-.04,3.36.15,5.56.57,1.07.21,1.98-.26,2.21-1.22.66-2.83,1.08-4.61,1.6-6.81-3.52-1.44-6.44-2.19-9.36-2.26Z"/>
</svg>