<?xml version="1.0" encoding="UTF-8"?>
<svg id="Ikony" xmlns="http://www.w3.org/2000/svg" viewBox="0 0 24 24">
  <defs>
    <style>
      .cls-1 {
        fill: #010101;
      }
    </style>
  </defs>
  <path class="cls-1" d="m3,9.9v10.53c0,.69.57,1.26,1.26,1.26h15.47c.7,0,1.27-.57,1.27-1.26v-10.53H3Zm12.14,5.98l-2.91,2.9-.02.02s-.13.08-.19.08c-.08,0-.16-.03-.2-.08l-.02-.02-2.97-2.96c-.83-.84-.83-2.2,0-3.04.84-.83,2.21-.83,3.05,0l.14.14.13-.14c.97-.96,2.64-.82,3.4.44.52.85.3,1.96-.41,2.67Z"/>
  <path class="cls-1" d="m21,7.94c0-1.14-.92-2.06-2.06-2.06H5.07c-1.14,0-2.06.92-2.06,2.06v.45h17.99v-.45Z"/>
  <path class="cls-1" d="m9,4c0-.55-.45-1-1-1s-1,.45-1,1v.95h2v-.95Z"/>
  <path class="cls-1" d="m17,4c0-.55-.45-1-1-1s-1,.45-1,1v.95h2v-.95Z"/>
</svg>