<svg width="24" height="24" viewBox="0 0 24 24" fill="none" xmlns="http://www.w3.org/2000/svg">
<path fill-rule="evenodd" clip-rule="evenodd" d="M1.19922 7.20078C1.19922 5.8753 2.27374 4.80078 3.59922 4.80078H20.3992C21.7247 4.80078 22.7992 5.8753 22.7992 7.20078V16.8008C22.7992 18.1263 21.7247 19.2008 20.3992 19.2008H3.59922C2.27374 19.2008 1.19922 18.1263 1.19922 16.8008V7.20078ZM13.1992 8.40078C13.1992 8.06941 13.4678 7.80078 13.7992 7.80078H19.1992C19.5306 7.80078 19.7992 8.06941 19.7992 8.40078V8.70078C19.7992 9.03215 19.5306 9.30078 19.1992 9.30078H13.7992C13.4678 9.30078 13.1992 9.03215 13.1992 8.70078V8.40078ZM13.7992 10.8008C13.4678 10.8008 13.1992 11.0694 13.1992 11.4008V11.7008C13.1992 12.0322 13.4678 12.3008 13.7992 12.3008H19.1992C19.5306 12.3008 19.7992 12.0322 19.7992 11.7008V11.4008C19.7992 11.0694 19.5306 10.8008 19.1992 10.8008H13.7992ZM8.99922 9.60078C8.99922 10.5949 8.19333 11.4008 7.19922 11.4008C6.20511 11.4008 5.39922 10.5949 5.39922 9.60078C5.39922 8.60667 6.20511 7.80078 7.19922 7.80078C8.19333 7.80078 8.99922 8.60667 8.99922 9.60078ZM6.79922 12.6008C5.03191 12.6008 3.59922 14.0335 3.59922 15.8008C3.59922 16.0217 3.77831 16.2008 3.99922 16.2008H10.3992C10.6201 16.2008 10.7992 16.0217 10.7992 15.8008C10.7992 14.0335 9.36653 12.6008 7.59922 12.6008H6.79922Z" fill="black"/>
</svg>